<?xml version="1.0" encoding="iso-8859-1"?>
<!-- Generator: Adobe Illustrator 16.0.0, SVG Export Plug-In . SVG Version: 6.00 Build 0)  -->
<!DOCTYPE svg PUBLIC "-//W3C//DTD SVG 1.1//EN" "http://www.w3.org/Graphics/SVG/1.1/DTD/svg11.dtd">
<svg version="1.1" id="Capa_1" xmlns="http://www.w3.org/2000/svg" xmlns:xlink="http://www.w3.org/1999/xlink" x="0px" y="0px"
	 width="874.9px" height="874.9px" viewBox="0 0 874.9 874.9" style="enable-background:new 0 0 874.9 874.9;" xml:space="preserve"
	>
<g>
	<g>
		<path d="M95.4,709.5c30,37.5,65.6,69.7,106,95.601c41.1,26.399,86,45.6,133.4,57L374.6,696.8C317.3,683,265.3,649.9,228.3,603.4
			C190.2,555.601,170,498,170,436.7c0-58.6,18.6-114.1,53.7-160.7c1.9-2.5,3.9-5.1,5.9-7.5l97,125.7L435.4,8.4L29,8.5l95,123.1
			c-12.9,13.2-24.9,27.3-36.1,42.1c-28,37.1-49.7,78.2-64.6,122C7.9,341,0,388.5,0,436.8c0,50.4,8.5,99.801,25.3,146.9
			C41.6,629.3,65.1,671.601,95.4,709.5z"/>
		<path d="M779.5,168.4c-30-37.5-65.6-69.7-106-95.6c-41.1-26.4-86-45.6-133.4-57l-39.799,165.3C557.6,194.9,609.6,228,646.6,274.5
			c38.1,47.8,58.301,105.4,58.301,166.7c0,58.6-18.6,114.1-53.701,160.7c-2,2.7-4.1,5.3-6.299,8l-99.6-129.2L436.5,866.5
			l406.401-0.1l-92.4-119.7c13-13.3,25.199-27.5,36.5-42.5c28-37.1,49.699-78.2,64.6-122c15.4-45.3,23.301-92.8,23.301-141.1
			c0-50.4-8.5-99.801-25.301-146.9C833.301,248.6,809.801,206.3,779.5,168.4z"/>
	</g>
</g>
<g>
</g>
<g>
</g>
<g>
</g>
<g>
</g>
<g>
</g>
<g>
</g>
<g>
</g>
<g>
</g>
<g>
</g>
<g>
</g>
<g>
</g>
<g>
</g>
<g>
</g>
<g>
</g>
<g>
</g>
</svg>
